# xmcd CD database file
#
# Track frame offsets:
#	150
#	25131
#	62175
#	77581
#	92173
#	107714
#	131695
#	146604
#
# Disc length: 2301 seconds
#
# Revision: 0
# Processed by: cddbd v1.4PL0 Copyright (c) Steve Scherf et al.
# Submitted via: CDex 1.50
#
DISCID=6808fb08
DTITLE=GILLES HEKIMIAN TRIO - EQUILIBRES
DYEAR=1977
DGENRE=Jazz
TTITLE0=BALLADE POUR G
TTITLE1=INNER SWING
TTITLE2=NARDIS
TTITLE3=IMPROVISE
TTITLE4=BILLARD PARTY
TTITLE5=POUR COLE
TTITLE6=NICA'S DREAM
TTITLE7=PAYS CATHARE
EXTD=YEAR: 1977
EXTT0=
EXTT1=
EXTT2=
EXTT3=
EXTT4=
EXTT5=
EXTT6=
EXTT7=
PLAYORDER=
